<svg xmlns="http://www.w3.org/2000/svg" xmlns:xlink="http://www.w3.org/1999/xlink" width="204" zoomAndPan="magnify" viewBox="0 0 153 242.999992" height="323" preserveAspectRatio="xMidYMid meet" version="1.0"><rect x="-15.3" width="183.6" fill="#ffffff" y="-24.299999" height="291.59999" fill-opacity="1"/><rect x="-15.3" width="183.6" fill="#d5bfb0" y="-24.299999" height="291.59999" fill-opacity="1"/><path fill="#141414" d="M 108.976562 102.75 C 109.132812 102.738281 109.285156 102.730469 109.441406 102.734375 C 110.886719 105.792969 112.039062 108.988281 113.410156 112.082031 C 114.117188 113.636719 114.585938 115.296875 115.464844 116.765625 C 116.101562 116.769531 116.734375 116.789062 117.371094 116.84375 C 117.371094 117.167969 117.375 117.496094 117.386719 117.820312 C 112.007812 117.839844 106.628906 117.835938 101.25 117.824219 C 101.246094 117.488281 101.246094 117.15625 101.25 116.820312 C 101.792969 116.792969 102.339844 116.796875 102.882812 116.75 C 103.480469 116.222656 103.691406 115.410156 104.015625 114.707031 C 105.695312 110.730469 107.367188 106.753906 108.976562 102.75 M 108.507812 106.597656 C 107.195312 109.351562 106.195312 112.242188 104.964844 115.03125 C 104.6875 115.632812 104.511719 116.277344 104.347656 116.914062 C 107.0625 116.945312 109.777344 116.925781 112.492188 116.929688 C 112.476562 116.511719 112.527344 116.074219 112.328125 115.691406 C 111.019531 112.675781 109.898438 109.578125 108.507812 106.597656 Z M 108.507812 106.597656 " fill-opacity="1" fill-rule="nonzero"/><path fill="#141414" d="M 13.746094 103.179688 C 15.8125 103.179688 17.878906 103.183594 19.945312 103.175781 C 21.308594 103.242188 22.78125 103.570312 23.769531 104.59375 C 24.941406 105.855469 24.964844 107.933594 23.882812 109.253906 C 23.371094 109.792969 22.726562 110.179688 22.183594 110.683594 C 23.550781 112.535156 23.777344 115.015625 25.324219 116.746094 C 25.878906 116.761719 26.433594 116.785156 26.984375 116.8125 C 27.007812 117.09375 27.023438 117.371094 27.042969 117.648438 C 25.796875 117.675781 24.542969 117.699219 23.296875 117.667969 C 22.554688 117.703125 22.167969 116.929688 21.914062 116.347656 C 21.335938 114.796875 20.929688 113.167969 20.152344 111.703125 C 19.8125 110.960938 18.84375 111.339844 18.210938 111.234375 C 18.207031 113.078125 18.1875 114.921875 18.226562 116.765625 C 18.816406 116.777344 19.40625 116.789062 19.992188 116.808594 C 20.070312 117.148438 20.15625 117.480469 20.253906 117.8125 C 18.09375 117.859375 15.929688 117.824219 13.765625 117.832031 C 13.765625 117.492188 13.765625 117.148438 13.765625 116.804688 C 14.429688 116.789062 15.089844 116.777344 15.757812 116.75 C 15.796875 112.59375 15.78125 108.433594 15.765625 104.273438 C 15.101562 104.253906 14.4375 104.238281 13.773438 104.21875 C 13.765625 103.875 13.757812 103.527344 13.746094 103.179688 M 18.230469 104.273438 C 18.1875 106.175781 18.207031 108.078125 18.214844 109.984375 C 19.296875 109.902344 20.636719 110.296875 21.441406 109.339844 C 22.1875 108.644531 22.117188 107.574219 22.085938 106.644531 C 22.125 105.710938 21.574219 104.800781 20.773438 104.339844 C 19.9375 104.175781 19.074219 104.277344 18.230469 104.273438 Z M 18.230469 104.273438 " fill-opacity="1" fill-rule="nonzero"/><path fill="#141414" d="M 36.757812 103.207031 C 38.988281 103.164062 41.214844 103.164062 43.445312 103.207031 C 43.433594 103.496094 43.425781 103.785156 43.417969 104.074219 C 42.769531 104.261719 42.09375 104.261719 41.425781 104.261719 C 41.40625 108.429688 41.386719 112.597656 41.4375 116.765625 C 42.09375 116.804688 42.835938 116.652344 43.402344 117.082031 C 43.433594 117.320312 43.433594 117.566406 43.445312 117.808594 C 41.226562 117.855469 39.007812 117.839844 36.789062 117.8125 C 36.789062 117.484375 36.789062 117.15625 36.792969 116.832031 C 37.445312 116.785156 38.101562 116.769531 38.757812 116.789062 C 39.039062 116.167969 38.949219 115.484375 38.957031 114.824219 C 38.949219 111.316406 38.957031 107.808594 38.957031 104.296875 C 38.316406 104.199219 37.613281 104.375 37.019531 104.089844 C 36.65625 103.957031 36.828125 103.5 36.757812 103.207031 Z M 36.757812 103.207031 " fill-opacity="1" fill-rule="nonzero"/><path fill="#141414" d="M 53.914062 103.1875 C 58.113281 103.15625 62.3125 103.207031 66.515625 103.164062 C 66.890625 104.480469 66.648438 105.902344 66.625 107.257812 C 66.363281 107.25 66.105469 107.238281 65.847656 107.222656 C 65.671875 106.179688 65.792969 104.703125 64.535156 104.324219 C 63.535156 104.210938 62.523438 104.269531 61.519531 104.269531 C 61.511719 108.429688 61.496094 112.589844 61.527344 116.75 C 62.1875 116.773438 62.855469 116.789062 63.515625 116.820312 C 63.519531 117.15625 63.523438 117.492188 63.523438 117.828125 C 61.371094 117.832031 59.21875 117.851562 57.070312 117.816406 C 57.070312 117.488281 57.070312 117.15625 57.074219 116.828125 C 57.734375 116.785156 58.398438 116.773438 59.058594 116.761719 C 59.097656 112.597656 59.082031 108.429688 59.066406 104.261719 C 57.914062 104.371094 56.613281 103.976562 55.566406 104.597656 C 54.695312 105.265625 55.132812 106.46875 54.789062 107.378906 C 54.507812 107.390625 54.21875 107.398438 53.9375 107.40625 C 53.902344 106 53.886719 104.59375 53.914062 103.1875 Z M 53.914062 103.1875 " fill-opacity="1" fill-rule="nonzero"/><path fill="#141414" d="M 86.824219 103.203125 C 88.605469 103.171875 90.390625 103.144531 92.171875 103.222656 C 92.015625 103.582031 91.960938 104.039062 91.554688 104.203125 C 91.082031 104.277344 90.597656 104.253906 90.121094 104.269531 C 90.011719 107.105469 90.265625 109.957031 89.945312 112.777344 C 90.007812 114.386719 89.351562 116.089844 88.03125 117.050781 C 86.335938 118.074219 84.203125 118.375 82.324219 117.6875 C 80.8125 117.238281 79.554688 115.890625 79.320312 114.3125 C 79.238281 110.988281 79.316406 107.664062 79.277344 104.34375 C 78.640625 104.175781 77.992188 104.074219 77.335938 104.050781 C 77.316406 103.871094 77.277344 103.515625 77.261719 103.335938 C 79.328125 103.339844 81.394531 103.328125 83.460938 103.34375 C 83.457031 103.503906 83.441406 103.824219 83.433594 103.984375 C 82.855469 104.277344 82.203125 104.257812 81.574219 104.285156 C 81.542969 107.34375 81.558594 110.398438 81.570312 113.457031 C 81.433594 115.234375 83.074219 116.925781 84.851562 116.800781 C 85.539062 116.773438 86.300781 116.925781 86.921875 116.546875 C 88.042969 115.976562 88.980469 114.792969 88.851562 113.476562 C 88.855469 110.40625 88.882812 107.332031 88.832031 104.261719 C 88.167969 104.253906 87.503906 104.242188 86.84375 104.199219 C 86.835938 103.867188 86.832031 103.539062 86.824219 103.203125 Z M 86.824219 103.203125 " fill-opacity="1" fill-rule="nonzero"/><path fill="#141414" d="M 127.527344 103.332031 C 129.519531 103.34375 131.507812 103.339844 133.496094 103.332031 C 133.5 103.515625 133.5 103.886719 133.503906 104.074219 C 132.875 104.054688 132.253906 104.117188 131.65625 104.3125 C 131.648438 108.449219 131.648438 112.585938 131.65625 116.722656 C 132.980469 117.195312 134.359375 116.746094 135.710938 116.734375 C 136.3125 116.71875 136.894531 116.386719 137.207031 115.871094 C 137.320312 115.171875 137.335938 114.453125 137.574219 113.78125 C 137.730469 113.773438 138.042969 113.757812 138.199219 113.75 C 138.210938 115.0625 138.230469 116.371094 138.207031 117.683594 C 134.648438 117.691406 131.09375 117.65625 127.535156 117.683594 C 127.535156 117.5 127.535156 117.136719 127.535156 116.953125 C 128.132812 116.945312 128.730469 116.933594 129.332031 116.917969 C 129.394531 112.65625 129.390625 108.382812 129.332031 104.117188 C 128.730469 104.101562 128.132812 104.085938 127.535156 104.078125 C 127.53125 103.890625 127.53125 103.515625 127.527344 103.332031 Z M 127.527344 103.332031 " fill-opacity="1" fill-rule="nonzero"/></svg>